<?xml version="1.0" encoding="UTF-8"?>
<svg id="Layer_2" data-name="Layer 2" xmlns="http://www.w3.org/2000/svg" viewBox="0 0 841.89 595.28">
  <defs>
    <style>
      .cls-1 {
        fill: #000;
      }

      .cls-1, .cls-2 {
        stroke-width: 0px;
      }

      .cls-2 {
        fill: #a78bc1;
      }
    </style>
  </defs>
  <path class="cls-1" d="M60.02,341.25v-87.04c0-3.01,2.44-5.44,5.44-5.44h7.49c2.58,0,4.81,1.81,5.33,4.34l11.72,56.47c1.2,5.78,9.45,5.79,10.66.01l11.86-56.5c.53-2.52,2.75-4.33,5.33-4.33h7.3c3.01,0,5.44,2.44,5.44,5.44v87.04c0,3.01-2.44,5.44-5.44,5.44h-.07c-3.01,0-5.44-2.44-5.44-5.44v-29.7c0-6.56-9.46-7.52-10.78-1.09l-6.53,31.88c-.52,2.53-2.75,4.35-5.33,4.35h-3.32c-2.58,0-4.81-1.81-5.33-4.34l-6.66-32.3c-1.32-6.42-10.78-5.46-10.78,1.1v30.1c0,3.01-2.44,5.44-5.44,5.44h0c-3.01,0-5.44-2.44-5.44-5.44Z"/>
  <path class="cls-1" d="M182.21,346.69h-2.27c-3.01,0-5.44-2.44-5.44-5.44v-31.92c0-.94-.24-1.86-.71-2.68l-28.25-49.89c-2.06-3.63.57-8.13,4.74-8.13h3.02c2.02,0,3.87,1.12,4.82,2.9l18.08,34.28c2.05,3.88,7.62,3.87,9.65-.03l17.8-34.23c.94-1.8,2.8-2.93,4.83-2.93h2.16c4.14,0,6.77,4.44,4.77,8.07l-27.06,49.14c-.44.8-.68,1.71-.68,2.63v32.78c0,3.01-2.44,5.44-5.44,5.44Z"/>
  <path class="cls-1" d="M307.12,288.68c-2.58,2.51-2.23,6.61.76,8.62,1.95,1.31,3.61,2.89,4.99,4.74,3.01,4.04,4.51,9.14,4.51,15.3,0,9.28-2.71,16.49-8.13,21.64-5.42,5.15-13.05,7.72-22.88,7.72h-31.43c-3.01,0-5.44-2.44-5.44-5.44v-87.04c0-3.01,2.44-5.44,5.44-5.44h29.43c9.42,0,16.55,2.07,21.4,6.2,4.85,4.13,7.27,10.25,7.27,18.33,0,4.78-1.06,8.8-3.17,12.06-.76,1.17-1.67,2.27-2.75,3.32ZM281.68,289.42c6.16,0,10.78-1.23,13.89-3.69,3.1-2.46,4.65-6.12,4.65-10.99s-1.39-8.58-4.17-10.86c-2.78-2.27-7.18-3.41-13.2-3.41h-14.89c-3.01,0-5.44,2.44-5.44,5.44v18.06c0,3.01,2.44,5.44,5.44,5.44h13.71ZM284.78,334.98c6.43,0,11.22-1.44,14.37-4.31,3.14-2.87,4.72-7.22,4.72-13.06s-1.65-9.67-4.96-12.34c-3.31-2.66-8.43-4-15.37-4h-15.58c-3.01,0-5.44,2.44-5.44,5.44v22.81c0,3.01,2.44,5.44,5.44,5.44h16.82Z"/>
  <path class="cls-1" d="M333.37,307.79v-53.73c0-2.93,2.44-5.3,5.44-5.3h2.07c3.01,0,5.44,2.37,5.44,5.3v54.46c0,9.03,1.7,15.73,5.1,20.09,3.4,4.36,8.61,6.54,15.64,6.54s12.11-2.21,15.51-6.64c3.4-4.43,5.1-11.09,5.1-19.99v-54.46c0-2.93,2.44-5.3,5.44-5.3h2.27c3.01,0,5.44,2.37,5.44,5.3v53.73c0,13.24-2.76,23.03-8.27,29.38-5.51,6.35-14.01,9.52-25.5,9.52s-19.86-3.17-25.39-9.52c-5.54-6.35-8.31-16.14-8.31-29.38Z"/>
  <path class="cls-1" d="M445.56,341.25v-75.19c0-3.01-2.44-5.44-5.44-5.44h-18.88c-3.01,0-5.44-2.44-5.44-5.44v-.97c0-3.01,2.44-5.44,5.44-5.44h61.54c3.01,0,5.44,2.44,5.44,5.44v.97c0,3.01-2.44,5.44-5.44,5.44h-18.75c-3.01,0-5.44,2.44-5.44,5.44v75.19c0,3.01-2.44,5.44-5.44,5.44h-2.14c-3.01,0-5.44-2.44-5.44-5.44Z"/>
  <path class="cls-1" d="M530.54,341.25v-75.19c0-3.01-2.44-5.44-5.44-5.44h-18.88c-3.01,0-5.44-2.44-5.44-5.44v-.97c0-3.01,2.44-5.44,5.44-5.44h61.54c3.01,0,5.44,2.44,5.44,5.44v.97c0,3.01-2.44,5.44-5.44,5.44h-18.75c-3.01,0-5.44,2.44-5.44,5.44v75.19c0,3.01-2.44,5.44-5.44,5.44h-2.14c-3.01,0-5.44-2.44-5.44-5.44Z"/>
  <path class="cls-1" d="M717.57,341.16v-87.04c0-3.01,2.44-5.44,5.44-5.44h6.44c2.12,0,4.05,1.23,4.94,3.16l25.23,54.63c2.45,5.3,10.39,3.55,10.39-2.28v-50.07c0-3.01,2.44-5.44,5.44-5.44h.97c3.01,0,5.44,2.44,5.44,5.44v87.04c0,3.01-2.44,5.44-5.44,5.44h-6.18c-2.11,0-4.04-1.22-4.93-3.14l-25.72-54.97c-2.47-5.27-10.38-3.52-10.38,2.31v50.36c0,3.01-2.44,5.44-5.44,5.44h-.76c-3.01,0-5.44-2.44-5.44-5.44Z"/>
  <g>
    <path class="cls-2" d="M657.81,282.1l-2.65-4.49c-.04-.09-.09-.19-.14-.28l-5-8.51c-.57-.96-1.76-1.35-2.78-.91l-11.15,4.73c-.4.17-.86,0-1.08-.36l-3.39-5.89c-.56-.97-1.76-1.36-2.79-.93l-15.69,6.67c-1.03.44-1.58,1.57-1.27,2.65l1.88,6.53c.12.42-.09.86-.49,1.03l-11.16,4.74c-1.02.43-1.57,1.56-1.27,2.63l2.14,7.69,1.98,7.15c.17.62.6,1.14,1.19,1.42.59.29,1.28.3,1.91.04l10.42-4.62c.25-.11.52-.1.77,0,.16.09.3.21.38.36.04.06.07.13.09.2l.34,1.22,1.46,5.09c.17.62.61,1.14,1.19,1.41.59.29,1.28.3,1.89.04l23.25-9.87c.61-.26,1.08-.77,1.29-1.39.2-.61.13-1.28-.19-1.84l-2.45-4.22-.85-1.46c-.08-.14-.12-.29-.11-.45,0-.09,0-.18.04-.27.09-.26.28-.46.52-.56l10.63-4.33c.61-.25,1.08-.76,1.28-1.39.21-.62.13-1.29-.19-1.84ZM653.92,278.72c-.08.24-.25.42-.48.52l-10.53,4.47c-.58.25-1.03.74-1.23,1.34-.21.6-.14,1.26.18,1.81l2.35,4.07.84,1.46c.08.14.11.28.11.43.01.09,0,.18-.04.27-.08.24-.25.42-.47.52l-22.24,9.44c-.23.1-.48.09-.7-.01-.17-.08-.31-.21-.39-.38-.03-.05-.05-.1-.07-.16l-.36-1.23-1.4-4.9c-.18-.62-.61-1.12-1.18-1.39-.57-.28-1.24-.29-1.82-.04l-10.54,4.47c-.23.1-.48.09-.7-.01-.23-.11-.39-.31-.46-.54l-.51-1.82-1.29-4.63-.85-3.06c-.12-.41.1-.85.49-1.02l11.16-4.74c.22-.09.41-.21.58-.36.64-.55.93-1.44.68-2.3l-1.11-3.88-.76-2.64c-.12-.42.09-.86.49-1.03l15.69-6.66c.4-.17.86-.02,1.08.36l1.39,2.41,2,3.47c.43.73,1.21,1.14,2.02,1.11.26-.01.52-.07.77-.18l11.15-4.73c.39-.17.85-.02,1.07.35l1.62,2.75,3.38,5.76c.04.06.06.11.08.18.05.16.05.35,0,.52Z"/>
    <path class="cls-2" d="M619.71,301.96c-.02-.07-.05-.14-.09-.2l.33,1.12c.02.1.06.2.1.3l-.34-1.22Z"/>
  </g>
  <g>
    <g>
      <path class="cls-2" d="M589.26,347.39c1.98.19,4.13.3,6.39.31h1.75c.09-.01.17-.01.26-.02-2.84-.06-5.64-.17-8.4-.29Z"/>
      <path class="cls-2" d="M702.53,279.34l-8.63-20.28c-2.7-6.39-9.86-10.31-20.71-11.36-15.15-1.46-35.68,2.73-56.31,11.49-20.64,8.78-37.91,20.63-47.36,32.54-6.05,7.63-8.42,14.74-6.92,20.72.19.71.42,1.41.7,2.08l1.16,2.74,7.46,17.56c1.1,2.6,2.72,4.91,4.68,6.81,3.28,3.16,7.54,5.21,12.2,5.71.16.01.3.04.46.04,2.76.12,5.56.23,8.4.29,9.33-.2,19.9-1.97,30.92-5.13,6.76-1.95,13.69-4.4,20.59-7.35,9.36-3.97,18.06-8.52,25.85-13.55.72-.46,1.43-.92,2.13-1.39,1.92-1.28,3.77-2.59,5.55-3.91,2.34-1.73,4.54-3.51,6.59-5.28,4.17-3.61,7.71-7.27,10.52-10.87,4.61-5.94,5.65-13.93,2.72-20.86ZM574.31,295.53c8.71-10.97,25.52-22.46,44.96-30.72,17.01-7.22,34.41-11.27,47.85-11.27,1.92,0,3.75.07,5.48.24,8.36.81,13.93,3.52,15.68,7.66.82,1.93.86,4.23.12,6.83-1.26,4.4-4.54,9.25-9.36,14.18-1.99,2.02-4.24,4.05-6.72,6.08-.51.43-1.04.84-1.57,1.26-2.01,1.57-4.13,3.14-6.38,4.67-3.19,2.17-6.61,4.3-10.23,6.33-5.07,2.85-10.51,5.54-16.21,7.96-1.37.59-2.75,1.15-4.12,1.69-4.46,1.76-8.91,3.28-13.27,4.57-19.74,5.84-37.67,6.78-46.78,1.94-.32-.16-.61-.33-.91-.51-1.9-1.18-3.22-2.63-3.93-4.29h0c-.05-.12-.1-.23-.12-.34-1.52-4.12.41-9.88,5.51-16.28ZM694.99,296.45c-4.69,6.05-11.74,12.3-20.48,18.22-.92.62-1.85,1.23-2.79,1.84-1.14.73-2.31,1.47-3.5,2.18-6.59,3.99-13.78,7.64-21.45,10.89-17.55,7.47-35.14,11.73-49.43,12h-1.68c-2.22,0-4.31-.11-6.2-.3-5.28-.58-9.84-3.96-11.92-8.84l-3.72-8.78c1.38.52,2.87.95,4.46,1.31.74.17,1.51.31,2.3.44.41.07.84.13,1.27.19.42.06.85.11,1.29.16.43.05.87.1,1.32.13.45.04.9.08,1.36.1.46.04.93.06,1.39.07.93.04,1.88.07,2.86.07s1.88-.02,2.83-.07c1.71-.04,3.46-.17,5.27-.34,2.17-.2,4.41-.49,6.7-.85,1.66-.27,3.34-.58,5.07-.92,1.45-.29,2.92-.61,4.41-.98.97-.23,1.93-.46,2.91-.71s1.96-.52,2.94-.79c2.47-.7,4.96-1.47,7.48-2.31,1.65-.54,3.31-1.12,4.97-1.75,1.55-.57,3.1-1.17,4.65-1.79h.02c1-.41,2-.82,3-1.25,2.34-.99,4.62-2.01,6.86-3.09.51-.23,1.02-.49,1.52-.73.62-.3,1.23-.6,1.83-.91.62-.3,1.23-.62,1.84-.94.61-.32,1.21-.63,1.81-.95,7.57-4.06,14.43-8.5,20.24-13.1.62-.47,1.23-.96,1.81-1.45l7.28-6.67c.38-.39.76-.79,1.12-1.18l.36-.4c.36-.38.7-.76,1.03-1.15l6.63-9.71c.19-.36.35-.7.49-1.05.02-.03.03-.05.04-.08l3.73,8.78c2.06,4.88,1.33,10.52-1.92,14.71Z"/>
    </g>
    <path class="cls-2" d="M702.95,328.89c0,2.7,0,9.01-28,14.13-17.12,3.12-39.86,4.84-64.02,4.84-4.49,0-8.92-.06-13.27-.18,9.33-.2,19.9-1.97,30.92-5.13,6.76-1.95,13.69-4.4,20.59-7.35,9.36-3.97,18.06-8.52,25.85-13.55.72-.46,1.43-.92,2.13-1.39,1.92-1.28,3.77-2.59,5.55-3.91,20.25,4.78,20.25,10.12,20.25,12.54Z"/>
  </g>
</svg>