<?xml version="1.0" encoding="UTF-8" standalone="no" ?>
<!DOCTYPE svg PUBLIC "-//W3C//DTD SVG 1.1//EN" "http://www.w3.org/Graphics/SVG/1.1/DTD/svg11.dtd">
<svg xmlns="http://www.w3.org/2000/svg" xmlns:xlink="http://www.w3.org/1999/xlink" version="1.1" width="480" height="100" viewBox="0 0 480 100" xml:space="preserve">
<desc>Created with Fabric.js 3.6.6</desc>
<defs>
</defs>
<g transform="matrix(1 0 0 1 240.21 50.15)"  >
<g style=""   >
		<g transform="matrix(0.66 0 0 0.66 -214.92 0.05)" id="Layer_2"  >
<path style="stroke: none; stroke-width: 0; stroke-dasharray: none; stroke-linecap: butt; stroke-dashoffset: 0; stroke-linejoin: miter; stroke-miterlimit: 4; fill: rgb(0,0,0); fill-rule: nonzero; opacity: 1;"  transform=" translate(-95.31, -297.72)" d="M 60.02 341.25 v -87.04 c 0 -3.01 2.44 -5.44 5.44 -5.44 h 7.49 c 2.58 0 4.81 1.81 5.33 4.34 l 11.72 56.47 c 1.2 5.78 9.45 5.79 10.66 0.01 l 11.86 -56.5 c 0.53 -2.52 2.75 -4.33 5.33 -4.33 h 7.3 c 3.01 0 5.44 2.44 5.44 5.44 v 87.04 c 0 3.01 -2.44 5.44 -5.44 5.44 h -0.07 c -3.01 0 -5.44 -2.44 -5.44 -5.44 v -29.7 c 0 -6.56 -9.46 -7.52 -10.78 -1.09 l -6.53 31.88 c -0.52 2.53 -2.75 4.35 -5.33 4.35 h -3.32 c -2.58 0 -4.81 -1.81 -5.33 -4.34 l -6.66 -32.3 c -1.32 -6.42 -10.78 -5.46 -10.78 1.1 v 30.1 c 0 3.01 -2.44 5.44 -5.44 5.44 h 0 c -3.01 0 -5.44 -2.44 -5.44 -5.44 Z" stroke-linecap="round" />
</g>
		<g transform="matrix(0.66 0 0 0.66 -158.72 0.01)" id="Layer_2"  >
<path style="stroke: none; stroke-width: 0; stroke-dasharray: none; stroke-linecap: butt; stroke-dashoffset: 0; stroke-linejoin: miter; stroke-miterlimit: 4; fill: rgb(0,0,0); fill-rule: nonzero; opacity: 1;"  transform=" translate(-180.46, -297.66)" d="M 182.21 346.69 h -2.27 c -3.01 0 -5.44 -2.44 -5.44 -5.44 v -31.92 c 0 -0.94 -0.24 -1.86 -0.71 -2.68 l -28.25 -49.89 c -2.06 -3.63 0.57 -8.13 4.74 -8.13 h 3.02 c 2.02 0 3.87 1.12 4.82 2.9 l 18.08 34.28 c 2.05 3.88 7.62 3.87 9.65 -0.03 l 17.8 -34.23 c 0.94 -1.8 2.8 -2.93 4.83 -2.93 h 2.16 c 4.14 0 6.77 4.44 4.77 8.07 l -27.06 49.14 c -0.44 0.8 -0.68 1.71 -0.68 2.63 v 32.78 c 0 3.01 -2.44 5.44 -5.44 5.44 Z" stroke-linecap="round" />
</g>
		<g transform="matrix(0.66 0 0 0.66 -90.75 0.07)" id="Layer_2"  >
<path style="stroke: none; stroke-width: 0; stroke-dasharray: none; stroke-linecap: butt; stroke-dashoffset: 0; stroke-linejoin: miter; stroke-miterlimit: 4; fill: rgb(0,0,0); fill-rule: nonzero; opacity: 1;"  transform=" translate(-283.44, -297.74)" d="M 307.12 288.68 c -2.58 2.51 -2.23 6.61 0.76 8.62 c 1.95 1.31 3.61 2.89 4.99 4.74 c 3.01 4.04 4.51 9.14 4.51 15.3 c 0 9.28 -2.71 16.49 -8.13 21.64 c -5.42 5.15 -13.05 7.72 -22.88 7.72 h -31.43 c -3.01 0 -5.44 -2.44 -5.44 -5.44 v -87.04 c 0 -3.01 2.44 -5.44 5.44 -5.44 h 29.43 c 9.42 0 16.55 2.07 21.4 6.2 c 4.85 4.13 7.27 10.25 7.27 18.33 c 0 4.78 -1.06 8.8 -3.17 12.06 c -0.76 1.17 -1.67 2.27 -2.75 3.32 Z M 281.68 289.42 c 6.16 0 10.78 -1.23 13.89 -3.69 c 3.1 -2.46 4.65 -6.12 4.65 -10.99 s -1.39 -8.58 -4.17 -10.86 c -2.78 -2.27 -7.18 -3.41 -13.2 -3.41 h -14.89 c -3.01 0 -5.44 2.44 -5.44 5.44 v 18.06 c 0 3.01 2.44 5.44 5.44 5.44 h 13.71 Z M 284.78 334.98 c 6.43 0 11.22 -1.44 14.37 -4.31 c 3.14 -2.87 4.72 -7.22 4.72 -13.06 s -1.65 -9.67 -4.96 -12.34 c -3.31 -2.66 -8.43 -4 -15.37 -4 h -15.58 c -3.01 0 -5.44 2.44 -5.44 5.44 v 22.81 c 0 3.01 2.44 5.44 5.44 5.44 h 16.82 Z" stroke-linecap="round" />
</g>
		<g transform="matrix(0.66 0 0 0.66 -35.54 0.06)" id="Layer_2"  >
<path style="stroke: none; stroke-width: 0; stroke-dasharray: none; stroke-linecap: butt; stroke-dashoffset: 0; stroke-linejoin: miter; stroke-miterlimit: 4; fill: rgb(0,0,0); fill-rule: nonzero; opacity: 1;"  transform=" translate(-367.09, -297.73)" d="M 333.37 307.79 v -53.73 c 0 -2.93 2.44 -5.3 5.44 -5.3 h 2.07 c 3.01 0 5.44 2.37 5.44 5.3 v 54.46 c 0 9.03 1.7 15.73 5.1 20.09 c 3.4 4.36 8.61 6.54 15.64 6.54 s 12.11 -2.21 15.51 -6.64 c 3.4 -4.43 5.1 -11.09 5.1 -19.99 v -54.46 c 0 -2.93 2.44 -5.3 5.44 -5.3 h 2.27 c 3.01 0 5.44 2.37 5.44 5.3 v 53.73 c 0 13.24 -2.76 23.03 -8.27 29.38 c -5.51 6.35 -14.01 9.52 -25.5 9.52 s -19.86 -3.17 -25.39 -9.52 c -5.54 -6.35 -8.31 -16.14 -8.31 -29.38 Z" stroke-linecap="round" />
</g>
		<g transform="matrix(0.66 0 0 0.66 20.51 0.06)" id="Layer_2"  >
<path style="stroke: none; stroke-width: 0; stroke-dasharray: none; stroke-linecap: butt; stroke-dashoffset: 0; stroke-linejoin: miter; stroke-miterlimit: 4; fill: rgb(0,0,0); fill-rule: nonzero; opacity: 1;"  transform=" translate(-452.01, -297.73)" d="M 445.56 341.25 v -75.19 c 0 -3.01 -2.44 -5.44 -5.44 -5.44 h -18.88 c -3.01 0 -5.44 -2.44 -5.44 -5.44 v -0.97 c 0 -3.01 2.44 -5.44 5.44 -5.44 h 61.54 c 3.01 0 5.44 2.44 5.44 5.44 v 0.97 c 0 3.01 -2.44 5.44 -5.44 5.44 h -18.75 c -3.01 0 -5.44 2.44 -5.44 5.44 v 75.19 c 0 3.01 -2.44 5.44 -5.44 5.44 h -2.14 c -3.01 0 -5.44 -2.44 -5.44 -5.44 Z" stroke-linecap="round" />
</g>
		<g transform="matrix(0.66 0 0 0.66 76.59 0.06)" id="Layer_2"  >
<path style="stroke: none; stroke-width: 0; stroke-dasharray: none; stroke-linecap: butt; stroke-dashoffset: 0; stroke-linejoin: miter; stroke-miterlimit: 4; fill: rgb(0,0,0); fill-rule: nonzero; opacity: 1;"  transform=" translate(-536.99, -297.73)" d="M 530.54 341.25 v -75.19 c 0 -3.01 -2.44 -5.44 -5.44 -5.44 h -18.88 c -3.01 0 -5.44 -2.44 -5.44 -5.44 v -0.97 c 0 -3.01 2.44 -5.44 5.44 -5.44 h 61.54 c 3.01 0 5.44 2.44 5.44 5.44 v 0.97 c 0 3.01 -2.44 5.44 -5.44 5.44 h -18.75 c -3.01 0 -5.44 2.44 -5.44 5.44 v 75.19 c 0 3.01 -2.44 5.44 -5.44 5.44 h -2.14 c -3.01 0 -5.44 -2.44 -5.44 -5.44 Z" stroke-linecap="round" />
</g>
		<g transform="matrix(0.66 0 0 0.66 216.99 0)" id="Layer_2"  >
<path style="stroke: none; stroke-width: 0; stroke-dasharray: none; stroke-linecap: butt; stroke-dashoffset: 0; stroke-linejoin: miter; stroke-miterlimit: 4; fill: rgb(0,0,0); fill-rule: nonzero; opacity: 1;"  transform=" translate(-749.72, -297.64)" d="M 717.57 341.16 v -87.04 c 0 -3.01 2.44 -5.44 5.44 -5.44 h 6.44 c 2.12 0 4.05 1.23 4.94 3.16 l 25.23 54.63 c 2.45 5.3 10.39 3.55 10.39 -2.28 v -50.07 c 0 -3.01 2.44 -5.44 5.44 -5.44 h 0.97 c 3.01 0 5.44 2.44 5.44 5.44 v 87.04 c 0 3.01 -2.44 5.44 -5.44 5.44 h -6.18 c -2.11 0 -4.04 -1.22 -4.93 -3.14 l -25.72 -54.97 c -2.47 -5.27 -10.38 -3.52 -10.38 2.31 v 50.36 c 0 3.01 -2.44 5.44 -5.44 5.44 h -0.76 c -3.01 0 -5.44 -2.44 -5.44 -5.44 Z" stroke-linecap="round" />
</g>
		<g transform="matrix(0.66 0 0 0.66 137.61 -6.63)" id="Layer_2"  >
<path style="stroke: none; stroke-width: 0; stroke-dasharray: none; stroke-linecap: butt; stroke-dashoffset: 0; stroke-linejoin: miter; stroke-miterlimit: 4; fill: rgb(167,139,193); fill-rule: nonzero; opacity: 1;"  transform=" translate(-629.43, -287.59)" d="M 657.81 282.1 l -2.65 -4.49 c -0.04 -0.09 -0.09 -0.19 -0.14 -0.28 l -5 -8.51 c -0.57 -0.96 -1.76 -1.35 -2.78 -0.91 l -11.15 4.73 c -0.4 0.17 -0.86 0 -1.08 -0.36 l -3.39 -5.89 c -0.56 -0.97 -1.76 -1.36 -2.79 -0.93 l -15.69 6.67 c -1.03 0.44 -1.58 1.57 -1.27 2.65 l 1.88 6.53 c 0.12 0.42 -0.09 0.86 -0.49 1.03 l -11.16 4.74 c -1.02 0.43 -1.57 1.56 -1.27 2.63 l 2.14 7.69 l 1.98 7.15 c 0.17 0.62 0.6 1.14 1.19 1.42 c 0.59 0.29 1.28 0.3 1.91 0.04 l 10.42 -4.62 c 0.25 -0.11 0.52 -0.1 0.77 0 c 0.16 0.09 0.3 0.21 0.38 0.36 c 0.04 0.06 0.07 0.13 0.09 0.2 l 0.34 1.22 l 1.46 5.09 c 0.17 0.62 0.61 1.14 1.19 1.41 c 0.59 0.29 1.28 0.3 1.89 0.04 l 23.25 -9.87 c 0.61 -0.26 1.08 -0.77 1.29 -1.39 c 0.2 -0.61 0.13 -1.28 -0.19 -1.84 l -2.45 -4.22 l -0.85 -1.46 c -0.08 -0.14 -0.12 -0.29 -0.11 -0.45 c 0 -0.09 0 -0.18 0.04 -0.27 c 0.09 -0.26 0.28 -0.46 0.52 -0.56 l 10.63 -4.33 c 0.61 -0.25 1.08 -0.76 1.28 -1.39 c 0.21 -0.62 0.13 -1.29 -0.19 -1.84 Z M 653.92 278.72 c -0.08 0.24 -0.25 0.42 -0.48 0.52 l -10.53 4.47 c -0.58 0.25 -1.03 0.74 -1.23 1.34 c -0.21 0.6 -0.14 1.26 0.18 1.81 l 2.35 4.07 l 0.84 1.46 c 0.08 0.14 0.11 0.28 0.11 0.43 c 0.01 0.09 0 0.18 -0.04 0.27 c -0.08 0.24 -0.25 0.42 -0.47 0.52 l -22.24 9.44 c -0.23 0.1 -0.48 0.09 -0.7 -0.01 c -0.17 -0.08 -0.31 -0.21 -0.39 -0.38 c -0.03 -0.05 -0.05 -0.1 -0.07 -0.16 l -0.36 -1.23 l -1.4 -4.9 c -0.18 -0.62 -0.61 -1.12 -1.18 -1.39 c -0.57 -0.28 -1.24 -0.29 -1.82 -0.04 l -10.54 4.47 c -0.23 0.1 -0.48 0.09 -0.7 -0.01 c -0.23 -0.11 -0.39 -0.31 -0.46 -0.54 l -0.51 -1.82 l -1.29 -4.63 l -0.85 -3.06 c -0.12 -0.41 0.1 -0.85 0.49 -1.02 l 11.16 -4.74 c 0.22 -0.09 0.41 -0.21 0.58 -0.36 c 0.64 -0.55 0.93 -1.44 0.68 -2.3 l -1.11 -3.88 l -0.76 -2.64 c -0.12 -0.42 0.09 -0.86 0.49 -1.03 l 15.69 -6.66 c 0.4 -0.17 0.86 -0.02 1.08 0.36 l 1.39 2.41 l 2 3.47 c 0.43 0.73 1.21 1.14 2.02 1.11 c 0.26 -0.01 0.52 -0.07 0.77 -0.18 l 11.15 -4.73 c 0.39 -0.17 0.85 -0.02 1.07 0.35 l 1.62 2.75 l 3.38 5.76 c 0.04 0.06 0.06 0.11 0.08 0.18 c 0.05 0.16 0.05 0.35 0 0.52 Z" stroke-linecap="round" />
</g>
		<g transform="matrix(0.66 0 0 0.66 131.27 3.19)" id="Layer_2"  >
<path style="stroke: none; stroke-width: 0; stroke-dasharray: none; stroke-linecap: butt; stroke-dashoffset: 0; stroke-linejoin: miter; stroke-miterlimit: 4; fill: rgb(167,139,193); fill-rule: nonzero; opacity: 1;"  transform=" translate(-619.84, -302.47)" d="M 619.71 301.96 c -0.02 -0.07 -0.05 -0.14 -0.09 -0.2 l 0.33 1.12 c 0.02 0.1 0.06 0.2 0.1 0.3 l -0.34 -1.22 Z" stroke-linecap="round" />
</g>
		<g transform="matrix(0.66 0 0 0.66 113.86 32.94)" id="Layer_2"  >
<path style="stroke: none; stroke-width: 0; stroke-dasharray: none; stroke-linecap: butt; stroke-dashoffset: 0; stroke-linejoin: miter; stroke-miterlimit: 4; fill: rgb(167,139,193); fill-rule: nonzero; opacity: 1;"  transform=" translate(-593.46, -347.54)" d="M 589.26 347.39 c 1.98 0.19 4.13 0.3 6.39 0.31 h 1.75 c 0.09 -0.01 0.17 -0.01 0.26 -0.02 c -2.84 -0.06 -5.64 -0.17 -8.4 -0.29 Z" stroke-linecap="round" />
</g>
		<g transform="matrix(0.66 0 0 0.66 140.07 -0.06)" id="Layer_2"  >
<path style="stroke: none; stroke-width: 0; stroke-dasharray: none; stroke-linecap: butt; stroke-dashoffset: 0; stroke-linejoin: miter; stroke-miterlimit: 4; fill: rgb(167,139,193); fill-rule: nonzero; opacity: 1;"  transform=" translate(-633.17, -297.55)" d="M 702.53 279.34 l -8.63 -20.28 c -2.7 -6.39 -9.86 -10.31 -20.71 -11.36 c -15.15 -1.46 -35.68 2.73 -56.31 11.49 c -20.64 8.78 -37.91 20.63 -47.36 32.54 c -6.05 7.63 -8.42 14.74 -6.92 20.72 c 0.19 0.71 0.42 1.41 0.7 2.08 l 1.16 2.74 l 7.46 17.56 c 1.1 2.6 2.72 4.91 4.68 6.81 c 3.28 3.16 7.54 5.21 12.2 5.71 c 0.16 0.01 0.3 0.04 0.46 0.04 c 2.76 0.12 5.56 0.23 8.4 0.29 c 9.33 -0.2 19.9 -1.97 30.92 -5.13 c 6.76 -1.95 13.69 -4.4 20.59 -7.35 c 9.36 -3.97 18.06 -8.52 25.85 -13.55 c 0.72 -0.46 1.43 -0.92 2.13 -1.39 c 1.92 -1.28 3.77 -2.59 5.55 -3.91 c 2.34 -1.73 4.54 -3.51 6.59 -5.28 c 4.17 -3.61 7.71 -7.27 10.52 -10.87 c 4.61 -5.94 5.65 -13.93 2.72 -20.86 Z M 574.31 295.53 c 8.71 -10.97 25.52 -22.46 44.96 -30.72 c 17.01 -7.22 34.41 -11.27 47.85 -11.27 c 1.92 0 3.75 0.07 5.48 0.24 c 8.36 0.81 13.93 3.52 15.68 7.66 c 0.82 1.93 0.86 4.23 0.12 6.83 c -1.26 4.4 -4.54 9.25 -9.36 14.18 c -1.99 2.02 -4.24 4.05 -6.72 6.08 c -0.51 0.43 -1.04 0.84 -1.57 1.26 c -2.01 1.57 -4.13 3.14 -6.38 4.67 c -3.19 2.17 -6.61 4.3 -10.23 6.33 c -5.07 2.85 -10.51 5.54 -16.21 7.96 c -1.37 0.59 -2.75 1.15 -4.12 1.69 c -4.46 1.76 -8.91 3.28 -13.27 4.57 c -19.74 5.84 -37.67 6.78 -46.78 1.94 c -0.32 -0.16 -0.61 -0.33 -0.91 -0.51 c -1.9 -1.18 -3.22 -2.63 -3.93 -4.29 h 0 c -0.05 -0.12 -0.1 -0.23 -0.12 -0.34 c -1.52 -4.12 0.41 -9.88 5.51 -16.28 Z M 694.99 296.45 c -4.69 6.05 -11.74 12.3 -20.48 18.22 c -0.92 0.62 -1.85 1.23 -2.79 1.84 c -1.14 0.73 -2.31 1.47 -3.5 2.18 c -6.59 3.99 -13.78 7.64 -21.45 10.89 c -17.55 7.47 -35.14 11.73 -49.43 12 h -1.68 c -2.22 0 -4.31 -0.11 -6.2 -0.3 c -5.28 -0.58 -9.84 -3.96 -11.92 -8.84 l -3.72 -8.78 c 1.38 0.52 2.87 0.95 4.46 1.31 c 0.74 0.17 1.51 0.31 2.3 0.44 c 0.41 0.07 0.84 0.13 1.27 0.19 c 0.42 0.06 0.85 0.11 1.29 0.16 c 0.43 0.05 0.87 0.1 1.32 0.13 c 0.45 0.04 0.9 0.08 1.36 0.1 c 0.46 0.04 0.93 0.06 1.39 0.07 c 0.93 0.04 1.88 0.07 2.86 0.07 s 1.88 -0.02 2.83 -0.07 c 1.71 -0.04 3.46 -0.17 5.27 -0.34 c 2.17 -0.2 4.41 -0.49 6.7 -0.85 c 1.66 -0.27 3.34 -0.58 5.07 -0.92 c 1.45 -0.29 2.92 -0.61 4.41 -0.98 c 0.97 -0.23 1.93 -0.46 2.91 -0.71 s 1.96 -0.52 2.94 -0.79 c 2.47 -0.7 4.96 -1.47 7.48 -2.31 c 1.65 -0.54 3.31 -1.12 4.97 -1.75 c 1.55 -0.57 3.1 -1.17 4.65 -1.79 h 0.02 c 1 -0.41 2 -0.82 3 -1.25 c 2.34 -0.99 4.62 -2.01 6.86 -3.09 c 0.51 -0.23 1.02 -0.49 1.52 -0.73 c 0.62 -0.3 1.23 -0.6 1.83 -0.91 c 0.62 -0.3 1.23 -0.62 1.84 -0.94 c 0.61 -0.32 1.21 -0.63 1.81 -0.95 c 7.57 -4.06 14.43 -8.5 20.24 -13.1 c 0.62 -0.47 1.23 -0.96 1.81 -1.45 l 7.28 -6.67 c 0.38 -0.39 0.76 -0.79 1.12 -1.18 l 0.36 -0.4 c 0.36 -0.38 0.7 -0.76 1.03 -1.15 l 6.63 -9.71 c 0.19 -0.36 0.35 -0.7 0.49 -1.05 c 0.02 -0.03 0.03 -0.05 0.04 -0.08 l 3.73 8.78 c 2.06 4.88 1.33 10.52 -1.92 14.71 Z" stroke-linecap="round" />
</g>
		<g transform="matrix(0.66 0 0 0.66 151.38 22.75)" id="Layer_2"  >
<path style="stroke: none; stroke-width: 0; stroke-dasharray: none; stroke-linecap: butt; stroke-dashoffset: 0; stroke-linejoin: miter; stroke-miterlimit: 4; fill: rgb(167,139,193); fill-rule: nonzero; opacity: 1;"  transform=" translate(-650.31, -332.1)" d="M 702.95 328.89 c 0 2.7 0 9.01 -28 14.13 c -17.12 3.12 -39.86 4.84 -64.02 4.84 c -4.49 0 -8.92 -0.06 -13.27 -0.18 c 9.33 -0.2 19.9 -1.97 30.92 -5.13 c 6.76 -1.95 13.69 -4.4 20.59 -7.35 c 9.36 -3.97 18.06 -8.52 25.85 -13.55 c 0.72 -0.46 1.43 -0.92 2.13 -1.39 c 1.92 -1.28 3.77 -2.59 5.55 -3.91 c 20.25 4.78 20.25 10.12 20.25 12.54 Z" stroke-linecap="round" />
</g>
</g>
</g>
</svg>