<?xml version="1.0" encoding="UTF-8"?>
<svg id="Layer_2" data-name="Layer 2" xmlns="http://www.w3.org/2000/svg" viewBox="0 0 841.89 595.28">
  <defs>
    <style>
      .cls-1 {
        fill: #a78bc1;
        stroke-width: 0px;
      }
    </style>
  </defs>
  <g>
    <path class="cls-1" d="M529.47,229.21l-11.67-19.77c-.18-.4-.4-.84-.62-1.23l-22.02-37.48c-2.51-4.23-7.75-5.95-12.24-4.01l-49.11,20.83c-1.76.75-3.79.04-4.76-1.59l-14.93-25.94c-2.47-4.27-7.75-5.99-12.29-4.1l-69.1,29.38c-4.54,1.94-6.96,6.91-5.59,11.67l8.28,28.76c.53,1.85-.4,3.79-2.16,4.54l-49.15,20.88c-4.49,1.89-6.91,6.87-5.59,11.58l9.42,33.87,8.72,31.49c.75,2.73,2.64,5.02,5.24,6.25,2.6,1.28,5.64,1.32,8.41.18l45.89-20.35c1.1-.48,2.29-.44,3.39.04.7.4,1.32.92,1.67,1.59.18.26.31.57.4.88l1.5,5.37,6.43,22.42c.75,2.73,2.69,5.02,5.24,6.21,2.6,1.28,5.64,1.32,8.32.18l102.4-43.47c2.69-1.15,4.76-3.39,5.68-6.12.88-2.69.57-5.64-.84-8.1l-10.79-18.59-3.74-6.43c-.35-.62-.53-1.28-.48-1.98,0-.4.04-.79.18-1.19.4-1.15,1.23-2.03,2.29-2.47l46.82-19.07c2.69-1.1,4.76-3.35,5.64-6.12.92-2.73.57-5.68-.84-8.1ZM512.34,214.32c-.35,1.06-1.1,1.85-2.11,2.29l-46.38,19.69c-2.55,1.1-4.54,3.26-5.42,5.9-.92,2.64-.62,5.55.79,7.97l10.35,17.92,3.7,6.43c.35.62.48,1.23.48,1.89.04.4-.04.79-.18,1.19-.35,1.06-1.1,1.85-2.07,2.29l-97.95,41.58c-1.01.44-2.11.4-3.08-.04-.75-.35-1.37-.92-1.72-1.67-.13-.22-.22-.44-.31-.7l-1.59-5.42-6.17-21.58c-.79-2.73-2.69-4.93-5.2-6.12-2.51-1.23-5.46-1.28-8.02-.18l-46.42,19.69c-1.01.44-2.11.4-3.08-.04-1.01-.48-1.72-1.37-2.03-2.38l-2.25-8.02-5.68-20.39-3.74-13.48c-.53-1.81.44-3.74,2.16-4.49l49.15-20.88c.97-.4,1.81-.92,2.55-1.59,2.82-2.42,4.1-6.34,2.99-10.13l-4.89-17.09-3.35-11.63c-.53-1.85.4-3.79,2.16-4.54l69.1-29.33c1.76-.75,3.79-.09,4.76,1.59l6.12,10.61,8.81,15.28c1.89,3.22,5.33,5.02,8.9,4.89,1.15-.04,2.29-.31,3.39-.79l49.11-20.83c1.72-.75,3.74-.09,4.71,1.54l7.13,12.11,14.89,25.37c.18.26.26.48.35.79.22.7.22,1.54,0,2.29Z"/>
    <path class="cls-1" d="M361.68,316.68c-.09-.31-.22-.62-.4-.88l1.45,4.93c.09.44.26.88.44,1.32l-1.5-5.37Z"/>
  </g>
  <g>
    <g>
      <path class="cls-1" d="M227.57,516.76c8.72.84,18.19,1.32,28.14,1.37l7.71-.04c.4,0,.75,0,1.14-.04-12.51-.26-24.84-.75-36.99-1.28Z"/>
      <path class="cls-1" d="M726.43,217.05l-38.01-89.32c-11.89-28.14-43.43-45.41-91.21-50.03-66.72-6.43-157.14,12.02-248,50.6-90.9,38.67-166.96,90.86-208.58,143.31-26.65,33.6-37.08,64.92-30.48,91.25.84,3.13,1.85,6.21,3.08,9.16l5.11,12.07,32.85,77.34c4.84,11.45,11.98,21.62,20.61,29.99,14.45,13.92,33.21,22.95,53.73,25.15.7.04,1.32.18,2.03.18,12.16.53,24.49,1.01,36.99,1.28,41.09-.88,87.64-8.68,136.18-22.59,29.77-8.59,60.29-19.38,90.68-32.37,41.22-17.48,79.54-37.52,113.85-59.68,3.17-2.03,6.3-4.05,9.38-6.12,8.46-5.64,16.6-11.41,24.44-17.22,10.31-7.62,19.99-15.46,29.02-23.25,18.37-15.9,33.96-32.02,46.33-47.87,20.3-26.16,24.88-61.35,11.98-91.87ZM161.73,288.36c38.36-48.31,112.39-98.92,198.01-135.3,74.91-31.8,151.55-49.63,210.74-49.63,8.46,0,16.52.31,24.13,1.06,36.82,3.57,61.35,15.5,69.06,33.74,3.61,8.5,3.79,18.63.53,30.08-5.55,19.38-20,40.74-41.22,62.45-8.76,8.9-18.67,17.84-29.6,26.78-2.25,1.89-4.58,3.7-6.91,5.55-8.85,6.91-18.19,13.83-28.1,20.57-14.05,9.56-29.11,18.94-45.05,27.88-22.33,12.55-46.29,24.4-71.39,35.06-6.03,2.6-12.11,5.06-18.15,7.44-19.64,7.75-39.24,14.45-58.44,20.13-86.94,25.72-165.9,29.86-206.03,8.54-1.41-.7-2.69-1.45-4.01-2.25-8.37-5.2-14.18-11.58-17.31-18.89v-.04c-.22-.48-.44-.97-.53-1.45-6.69-18.15,1.81-43.51,24.27-71.7ZM693.22,292.41c-20.66,26.65-51.7,54.17-90.2,80.24-4.05,2.73-8.15,5.42-12.29,8.1-5.02,3.21-10.17,6.47-15.41,9.6-29.02,17.57-60.69,33.65-94.47,47.96-77.29,32.9-154.76,51.66-217.7,52.85l-7.4.04c-9.78-.04-18.98-.53-27.31-1.37-23.25-2.55-43.34-17.44-52.5-38.93l-16.38-38.67c6.08,2.29,12.64,4.18,19.64,5.77,3.26.75,6.65,1.37,10.13,1.94,1.81.31,3.7.57,5.59.84,1.85.26,3.74.48,5.68.7,1.89.22,3.83.44,5.81.57,1.98.18,3.96.35,5.99.44,2.03.18,4.1.26,6.12.31,4.1.18,8.28.31,12.6.31s8.28-.09,12.46-.31c7.53-.18,15.24-.75,23.21-1.5,9.56-.88,19.42-2.16,29.51-3.74,7.31-1.19,14.71-2.55,22.33-4.05,6.39-1.28,12.86-2.69,19.42-4.32,4.27-1.01,8.5-2.03,12.82-3.13s8.63-2.29,12.95-3.48c10.88-3.08,21.84-6.47,32.94-10.17,7.27-2.38,14.58-4.93,21.89-7.71,6.83-2.51,13.65-5.15,20.48-7.88h.09c4.4-1.81,8.81-3.61,13.21-5.51,10.31-4.36,20.35-8.85,30.21-13.61,2.25-1.01,4.49-2.16,6.69-3.21,2.73-1.32,5.42-2.64,8.06-4.01,2.73-1.32,5.42-2.73,8.1-4.14,2.69-1.41,5.33-2.77,7.97-4.18,33.34-17.88,63.55-37.44,89.14-57.69,2.73-2.07,5.42-4.23,7.97-6.39l32.06-29.38c1.67-1.72,3.35-3.48,4.93-5.2l1.59-1.76c1.59-1.67,3.08-3.35,4.54-5.06l29.2-42.76c.84-1.59,1.54-3.08,2.16-4.62.09-.13.13-.22.18-.35l16.43,38.67c9.07,21.49,5.86,46.33-8.46,64.79Z"/>
    </g>
    <path class="cls-1" d="M728.28,435.28c0,11.89,0,39.68-123.32,62.23-75.4,13.74-175.55,21.32-281.95,21.32-19.77,0-39.28-.26-58.44-.79,41.09-.88,87.64-8.68,136.18-22.59,29.77-8.59,60.29-19.38,90.68-32.37,41.22-17.48,79.54-37.52,113.85-59.68,3.17-2.03,6.3-4.05,9.38-6.12,8.46-5.64,16.6-11.41,24.44-17.22,89.18,21.05,89.18,44.57,89.18,55.23Z"/>
  </g>
</svg>